<svg width="119" height="22" viewBox="0 0 119 22" fill="none" xmlns="http://www.w3.org/2000/svg">
<g clip-path="url(#clip0_204_1605)">
<path d="M76.9783 12.9389C76.0198 12.5297 75.2381 12.1597 74.6297 11.8323C73.4469 11.1883 72.7841 10.4446 72.6482 9.60492C72.5598 9.05341 72.6957 8.57306 73.0526 8.16031C73.4095 7.75113 73.8853 7.53052 74.4835 7.4985C75.4522 7.43801 76.2815 7.76536 76.9715 8.48055C77.3725 8.89685 77.7464 9.41634 78.1033 10.039C78.1203 10.071 78.1611 10.0746 78.1849 10.0497L79.8163 8.23148L79.8265 8.18878C79.4152 7.76892 78.6233 7.43801 77.4507 7.18894C76.2781 6.94343 75.1769 6.8865 74.1504 7.01815C73.4571 7.11066 72.8453 7.27434 72.3151 7.50917C71.7882 7.74401 71.3736 8.02866 71.0677 8.36313C70.7652 8.69759 70.5341 9.03562 70.3709 9.38432C70.2078 9.73301 70.099 10.1066 70.0412 10.5051C69.7591 12.4194 70.6394 13.8782 72.6821 14.8816C74.5889 15.7925 75.8736 16.4721 76.533 16.9169C77.1924 17.3617 77.5935 17.8812 77.7294 18.4754C77.7872 18.6782 77.8246 18.8952 77.8382 19.1194C77.8518 19.3436 77.8246 19.5891 77.7566 19.8488C77.6886 20.1086 77.5765 20.3434 77.4269 20.5569C77.2774 20.7668 77.0394 20.9412 76.7166 21.0799C76.3937 21.2187 76.0062 21.2934 75.5576 21.3041C74.4631 21.3041 73.4333 20.8024 72.4782 19.799C71.9548 19.2475 71.5231 18.6355 71.1799 17.963C71.1629 17.931 71.1221 17.9239 71.0983 17.9523L69.2731 19.9876C69.2527 20.0089 69.2527 20.0445 69.2731 20.0659C69.6776 20.4679 70.3199 20.8451 71.1968 21.1974C72.1111 21.5674 73.1172 21.8022 74.2116 21.9054C75.1973 21.9873 76.098 21.9268 76.9103 21.7275C77.7226 21.5283 78.3786 21.2329 78.8748 20.838C79.3744 20.443 79.7653 20.016 80.0576 19.557C80.3465 19.0945 80.5301 18.6213 80.6082 18.1302C80.9889 15.8566 79.7823 14.1273 76.9851 12.9389" fill="white"/>
<path d="M27.6374 21.944C25.4418 21.944 23.6234 21.2253 22.1789 19.7913C20.7344 18.3538 20.0173 16.5499 20.0275 14.3758C20.0376 12.8992 20.3707 11.5934 21.0267 10.4548C21.6827 9.31616 22.597 8.44085 23.7662 7.83241C24.9388 7.22041 26.2711 6.91797 27.77 6.91797C30.0506 6.91797 31.869 7.60469 33.2217 8.98169C34.5745 10.3551 35.2304 12.184 35.1897 14.4719C35.1591 16.6032 34.4555 18.3823 33.079 19.8091C31.7024 21.2324 29.8875 21.9476 27.634 21.9476M27.9739 21.2537C28.7659 21.1826 29.4422 20.8161 29.9996 20.1543C30.557 19.4924 30.9615 18.6634 31.213 17.6636C31.4645 16.6637 31.5869 15.5394 31.5869 14.2869C31.5665 12.9953 31.4068 11.846 31.1111 10.8426C30.812 9.8392 30.3599 9.03862 29.7515 8.44441C29.1431 7.8502 28.4294 7.57267 27.6069 7.61536C26.8047 7.66518 26.1114 8.02811 25.5268 8.69704C24.9456 9.36953 24.5139 10.2164 24.242 11.2447C23.9667 12.2694 23.8341 13.4045 23.8443 14.6427C23.8545 15.8311 24.0211 16.9306 24.344 17.9411C24.6669 18.9516 25.1461 19.77 25.7851 20.3962C26.4241 21.0224 27.1514 21.3071 27.9739 21.2573" fill="white"/>
<path d="M55.2246 19.4246L55.3436 19.8623L49.8035 21.8548L49.6574 21.7943C49.6574 21.3745 49.6676 20.8158 49.688 20.1184C48.6411 21.1432 47.2986 21.7125 45.6603 21.8263C43.6312 21.9473 41.9284 21.2962 40.5553 19.8729C39.1788 18.4461 38.4922 16.5852 38.4922 14.2902C38.4922 12.2478 39.1346 10.5613 40.4261 9.21984C41.7143 7.88198 43.3559 7.13477 45.3544 6.98177C47.098 6.85724 48.5527 7.0814 49.7185 7.64359C49.6879 5.25252 49.6608 3.85061 49.6302 3.42719C49.62 3.20302 49.6064 3.02868 49.586 2.91126C49.5656 2.79384 49.5112 2.67998 49.4262 2.56612C49.3379 2.45582 49.2155 2.38109 49.0592 2.35263C48.7941 2.29214 48.393 2.33128 47.8526 2.47716L47.7302 2.00037C48.6003 1.73351 49.6404 1.32433 50.8877 0.89379C52.1351 0.463255 52.9236 0.110999 53.2465 0.0078125L53.3043 0.0362776C53.2261 3.13186 53.1853 6.80031 53.1853 10.8601C53.1853 12.8598 53.2159 15.2438 53.2737 18.012C53.2839 18.5564 53.3825 18.9443 53.566 19.1826C53.753 19.421 53.9875 19.5278 54.273 19.5064C54.5551 19.4851 54.8746 19.4602 55.2281 19.4317M46.646 20.2394C47.9104 20.2892 48.9232 19.8587 49.688 18.9478V18.101C49.688 17.6704 49.6913 16.7133 49.7015 15.2224C49.7117 13.7351 49.7151 12.6499 49.7151 11.9632C49.6846 10.9278 49.4568 10.0382 49.0252 9.29457C48.5935 8.55091 48.0531 8.03854 47.4005 7.75033C46.748 7.46212 46.0648 7.41587 45.351 7.61156C44.2736 7.89977 43.4817 8.62208 42.9786 9.77847C42.4756 10.9384 42.2955 12.4613 42.4416 14.3471C42.5606 16.0586 43.0092 17.4534 43.7876 18.5315C44.5659 19.6096 45.5176 20.1789 46.646 20.2394Z" fill="white"/>
<path d="M94.2206 19.6061L94.4279 19.8978C94.1254 20.2786 93.7617 20.6237 93.3403 20.9368C92.9188 21.2499 92.3342 21.5168 91.5831 21.7445C90.832 21.9687 90.0366 22.047 89.1971 21.9758C86.1993 21.7196 84.7005 19.905 84.7005 16.5318V8.20935H82.1445V7.73256C82.8311 7.68274 83.4837 7.5333 84.1057 7.28779C84.7276 7.04228 85.3055 6.7007 85.8391 6.26304C86.3727 5.82539 86.8247 5.25965 87.1918 4.55514C87.5589 3.85418 87.7968 3.05716 87.9056 2.16406H88.463L88.4358 7.51551H91.9638V8.20579H88.4358L88.4052 11.8529V14.7279C88.4052 16.297 88.4698 17.3822 88.5955 17.9907C88.8708 19.2325 89.4826 19.9904 90.4309 20.2679C91.0597 20.4529 91.719 20.4849 92.4158 20.3675C93.1126 20.2501 93.7142 19.9975 94.224 19.6061" fill="white"/>
<path d="M15.203 9.14191C14.1731 7.7827 12.7048 7.04261 10.7947 6.91807C10.1693 6.87893 9.55412 6.94298 8.94913 7.11021C8.34754 7.27745 7.82752 7.50517 7.39247 7.78626C6.95741 8.06735 6.59034 8.35201 6.29124 8.64022C5.99215 8.92842 5.77802 9.19529 5.65226 9.4408C5.65226 5.40231 5.67266 2.28181 5.71004 0.0899979L5.62167 0.0117188C5.2512 0.132696 0.373872 1.95802 0 2.06833L0.142751 2.4704C0.652576 2.34586 1.06384 2.29605 1.37653 2.3174C1.7368 2.33874 1.94073 2.60916 1.97812 3.13221C2.01891 3.63391 2.0359 6.21 2.0359 10.8534C2.0359 13.3975 2.14466 21.3214 2.15486 21.4033H2.48795V21.4104L4.89772 20.5351C6.27765 21.5243 7.98046 21.9583 10.0164 21.816C11.223 21.7449 12.314 21.3606 13.2928 20.6632C14.2717 19.9658 15.0432 19.0585 15.6074 17.9412C16.1717 16.8239 16.4911 15.5928 16.5693 14.2514C16.6883 12.2019 16.2328 10.4976 15.203 9.13836M12.8986 14.9452C12.868 15.8882 12.7252 16.799 12.4635 17.6743C12.2052 18.5496 11.8245 19.304 11.3249 19.9373C10.8253 20.5671 10.2577 20.9407 9.6221 21.051C8.49709 21.2467 7.55901 20.9194 6.80787 20.0761C6.06012 19.2292 5.68285 18.023 5.68285 16.4539V10.3481C6.18248 9.6187 6.73649 9.09566 7.34488 8.77898C7.94987 8.45875 8.53107 8.31287 9.07829 8.33422C10.2815 8.36268 11.2365 8.96045 11.9435 10.1168C12.6505 11.2768 12.9666 12.8851 12.8986 14.9452Z" fill="white"/>
<path d="M111.676 19.5939C111.38 19.6188 111.312 19.6259 111.047 19.6437C110.761 19.665 110.527 19.5583 110.34 19.3199C110.153 19.085 110.054 18.6936 110.048 18.1493C110.041 17.8646 110.037 17.5835 110.031 17.306C110.031 17.306 109.983 8.8198 109.98 8.34301C109.973 7.86622 109.966 7.58512 109.959 7.50329H109.623L107.356 8.32522C106.924 7.99787 106.496 7.77726 106.496 7.77726C105.33 7.21508 103.875 6.99091 102.132 7.11545C100.133 7.26845 98.4916 8.01566 97.2035 9.35352C95.9153 10.6914 95.2695 12.3815 95.2695 14.4239C95.2695 16.7189 95.9561 18.5833 97.3326 20.0066C98.7092 21.4299 100.412 22.0846 102.438 21.96C104.073 21.8462 105.415 21.2769 106.465 20.2521C106.445 20.9495 106.435 21.5081 106.435 21.928L106.581 21.9885L111.832 20.092L111.679 19.5832L111.676 19.5939ZM106.475 15.3668C106.465 16.8541 106.462 17.8148 106.462 18.2453V19.0922C105.697 20.0066 104.684 20.4371 103.42 20.3838C102.292 20.3233 101.34 19.754 100.562 18.6759C99.7832 17.6013 99.3345 16.2065 99.2156 14.4915C99.0694 12.6057 99.2496 11.0828 99.7526 9.92282C100.259 8.76287 101.048 8.04057 102.125 7.75592C102.842 7.56022 103.525 7.60647 104.174 7.89468C104.827 8.18289 105.367 8.69527 105.799 9.43892C106.231 10.1826 106.462 11.0721 106.489 12.1075C106.489 12.7942 106.482 13.883 106.475 15.3668Z" fill="white"/>
<path d="M61.9061 4.36051C62.4839 4.36051 62.97 4.14346 63.3676 3.71648C63.7653 3.28595 63.9624 2.76646 63.9624 2.16157C63.9624 1.62785 63.7653 1.16529 63.3676 0.770339C62.97 0.375385 62.4839 0.179688 61.9061 0.179688C61.3283 0.179688 60.8593 0.375385 60.4718 0.770339C60.0844 1.16529 59.8906 1.62785 59.8906 2.16157C59.8906 2.76646 60.0844 3.28595 60.4718 3.71648C60.8593 4.14702 61.3351 4.36051 61.9061 4.36051Z" fill="white"/>
<path d="M60.2925 21.8566L60.1429 21.7961C60.1429 21.394 60.1497 21.0774 60.1667 20.4405V20.0491V18.8784V18.0316C60.1667 17.8074 60.1667 17.4409 60.1701 16.9321V14.3169C60.1701 12.0112 60.1497 10.6058 60.1124 10.1041C60.1022 9.9724 60.0954 9.89056 60.0886 9.85854C60.0852 9.83008 60.0716 9.76247 60.0512 9.65929C60.0308 9.5561 60.007 9.49205 59.9764 9.46003C59.9458 9.43156 59.9016 9.39598 59.8439 9.3604C59.7861 9.32482 59.7113 9.29991 59.6229 9.2928C59.368 9.27145 58.9772 9.30347 58.4469 9.38531L58.3008 8.84803C60.1226 8.25382 61.9681 7.54219 63.8409 6.85547L63.9293 6.91596C63.8885 9.60236 63.8851 16.7471 63.9123 18.0707C63.9225 18.6151 64.021 19.003 64.2046 19.2414C64.3915 19.4798 64.626 19.5865 64.9115 19.5652C65.197 19.5438 65.5131 19.5189 65.8666 19.4904L65.9584 19.8676L60.2891 21.8673L60.2925 21.8566Z" fill="white"/>
</g>
<defs>
<clipPath id="clip0_204_1605">
<rect width="119" height="22" fill="white"/>
</clipPath>
</defs>
</svg>
